# xmcd CD database file
#
# Track frame offsets:
#	150
#	62934
#	99664
#	108180
#	155586
#	175142
#
# Disc length: 2980 seconds
#
# Revision: 0
# Processed by: cddbd v1.5.2PL0 Copyright (c) Steve Scherf et al.
# Submitted via: CDex 1.51
#
DISCID=490ba206
DTITLE=Miles Davis - The Complete Miles Davis at Montreux 1973-1991 CD4
DYEAR=1900
DGENRE=Jazz
TTITLE0=Time after Time
TTITLE1=Hopscotch: Star On Cicely
TTITLE2=Bass Solo
TTITLE3=Jean Pierre
TTITLE4=Lake Geneva
TTITLE5=Something's On Your Mind (Reprise)
EXTD=
EXTT0=
EXTT1=
EXTT2=
EXTT3=
EXTT4=
EXTT5=
PLAYORDER=
